<svg width="177" height="53" viewBox="0 0 177 53" fill="none" xmlns="http://www.w3.org/2000/svg">
<path d="M65.6974 10.6364V31H62.0085V10.6364H65.6974ZM87.1225 17.5071H83.4038C83.2977 16.8973 83.1022 16.357 82.8171 15.8864C82.5321 15.4091 82.1774 15.0047 81.7532 14.6733C81.329 14.3419 80.8451 14.0933 80.3015 13.9276C79.7646 13.7552 79.1845 13.669 78.5614 13.669C77.4544 13.669 76.4734 13.9474 75.6183 14.5043C74.7631 15.0544 74.0936 15.8632 73.6097 16.9304C73.1258 17.991 72.8839 19.2869 72.8839 20.8182C72.8839 22.3759 73.1258 23.6884 73.6097 24.7557C74.1003 25.8163 74.7698 26.6184 75.6183 27.1619C76.4734 27.6989 77.4511 27.9673 78.5515 27.9673C79.1613 27.9673 79.7314 27.8878 80.2617 27.7287C80.7987 27.563 81.2792 27.321 81.7035 27.0028C82.1344 26.6847 82.4956 26.2936 82.7873 25.8295C83.0856 25.3655 83.2911 24.8352 83.4038 24.2386L87.1225 24.2585C86.9833 25.2263 86.6817 26.1345 86.2177 26.983C85.7603 27.8314 85.1604 28.5805 84.418 29.2301C83.6755 29.8731 82.8072 30.3769 81.8129 30.7415C80.8185 31.0994 79.7148 31.2784 78.5018 31.2784C76.712 31.2784 75.1145 30.8641 73.7092 30.0355C72.3039 29.2069 71.1969 28.0104 70.3881 26.446C69.5794 24.8816 69.1751 23.0057 69.1751 20.8182C69.1751 18.6241 69.5827 16.7481 70.3981 15.1903C71.2134 13.6259 72.3237 12.4294 73.729 11.6008C75.1344 10.7723 76.7253 10.358 78.5018 10.358C79.6353 10.358 80.6893 10.517 81.6637 10.8352C82.6381 11.1534 83.5065 11.6207 84.2688 12.2372C85.0311 12.8471 85.6576 13.5961 86.1481 14.4844C86.6452 15.366 86.9701 16.3736 87.1225 17.5071ZM108.697 20.8182C108.697 23.0123 108.286 24.8916 107.464 26.456C106.648 28.0137 105.535 29.2069 104.123 30.0355C102.718 30.8641 101.123 31.2784 99.3402 31.2784C97.5571 31.2784 95.9595 30.8641 94.5476 30.0355C93.1423 29.2003 92.0286 28.0038 91.2067 26.446C90.3913 24.8816 89.9837 23.0057 89.9837 20.8182C89.9837 18.6241 90.3913 16.7481 91.2067 15.1903C92.0286 13.6259 93.1423 12.4294 94.5476 11.6008C95.9595 10.7723 97.5571 10.358 99.3402 10.358C101.123 10.358 102.718 10.7723 104.123 11.6008C105.535 12.4294 106.648 13.6259 107.464 15.1903C108.286 16.7481 108.697 18.6241 108.697 20.8182ZM104.988 20.8182C104.988 19.2737 104.746 17.9711 104.262 16.9105C103.785 15.8433 103.122 15.0379 102.273 14.4943C101.425 13.9441 100.447 13.669 99.3402 13.669C98.2332 13.669 97.2554 13.9441 96.407 14.4943C95.5585 15.0379 94.8923 15.8433 94.4084 16.9105C93.9311 17.9711 93.6925 19.2737 93.6925 20.8182C93.6925 22.3627 93.9311 23.6686 94.4084 24.7358C94.8923 25.7964 95.5585 26.6018 96.407 27.152C97.2554 27.6955 98.2332 27.9673 99.3402 27.9673C100.447 27.9673 101.425 27.6955 102.273 27.152C103.122 26.6018 103.785 25.7964 104.262 24.7358C104.746 23.6686 104.988 22.3627 104.988 20.8182ZM112.184 31V10.6364H115.873V27.9077H124.842V31H112.184ZM132.279 31.3082C131.312 31.3082 130.44 31.1359 129.664 30.7912C128.895 30.4399 128.286 29.9228 127.835 29.2401C127.391 28.5573 127.169 27.7154 127.169 26.7145C127.169 25.8527 127.328 25.1402 127.646 24.5767C127.964 24.0133 128.398 23.5625 128.949 23.2244C129.499 22.8864 130.118 22.6312 130.808 22.4588C131.504 22.2798 132.223 22.1506 132.966 22.071C133.86 21.9782 134.586 21.8954 135.143 21.8224C135.7 21.7429 136.104 21.6236 136.356 21.4645C136.615 21.2988 136.744 21.0436 136.744 20.6989V20.6392C136.744 19.8902 136.522 19.3101 136.078 18.8991C135.634 18.4882 134.994 18.2827 134.159 18.2827C133.277 18.2827 132.578 18.4749 132.061 18.8594C131.55 19.2438 131.206 19.6979 131.027 20.2216L127.666 19.7443C127.931 18.8163 128.368 18.0407 128.978 17.4176C129.588 16.7879 130.334 16.3172 131.216 16.0057C132.097 15.6875 133.072 15.5284 134.139 15.5284C134.875 15.5284 135.607 15.6146 136.336 15.7869C137.065 15.9593 137.732 16.2443 138.335 16.642C138.938 17.0331 139.422 17.5668 139.787 18.2429C140.158 18.919 140.343 19.7642 140.343 20.7784V31H136.883V28.902H136.764C136.545 29.3262 136.237 29.724 135.839 30.0952C135.448 30.4598 134.954 30.7547 134.358 30.9801C133.768 31.1989 133.075 31.3082 132.279 31.3082ZM133.214 28.6634C133.937 28.6634 134.563 28.5208 135.093 28.2358C135.624 27.9441 136.031 27.5597 136.316 27.0824C136.608 26.6051 136.754 26.0848 136.754 25.5213V23.7216C136.641 23.8144 136.449 23.9006 136.177 23.9801C135.912 24.0597 135.614 24.1293 135.282 24.1889C134.951 24.2486 134.623 24.3016 134.298 24.348C133.973 24.3944 133.691 24.4342 133.453 24.4673C132.916 24.5402 132.435 24.6596 132.011 24.8253C131.587 24.991 131.252 25.223 131.007 25.5213C130.761 25.813 130.639 26.1908 130.639 26.6548C130.639 27.3177 130.881 27.8182 131.365 28.1562C131.849 28.4943 132.465 28.6634 133.214 28.6634ZM147.562 22.0511V31H143.963V15.7273H147.403V18.3224H147.582C147.933 17.4673 148.493 16.7879 149.262 16.2841C150.038 15.7803 150.996 15.5284 152.136 15.5284C153.19 15.5284 154.108 15.7538 154.89 16.2045C155.679 16.6553 156.289 17.3082 156.72 18.1634C157.157 19.0185 157.373 20.0559 157.366 21.2756V31H153.767V21.8324C153.767 20.8116 153.502 20.0128 152.971 19.4361C152.448 18.8594 151.722 18.571 150.794 18.571C150.164 18.571 149.604 18.7102 149.113 18.9886C148.629 19.2604 148.248 19.6548 147.97 20.1719C147.698 20.6889 147.562 21.3153 147.562 22.0511ZM166.693 31.2685C165.493 31.2685 164.419 30.9602 163.471 30.3437C162.523 29.7273 161.774 28.8324 161.224 27.6591C160.674 26.4858 160.399 25.0606 160.399 23.3835C160.399 21.6866 160.677 20.2547 161.234 19.0881C161.797 17.9148 162.556 17.0298 163.511 16.4332C164.466 15.83 165.529 15.5284 166.703 15.5284C167.598 15.5284 168.333 15.6809 168.91 15.9858C169.487 16.2841 169.944 16.6454 170.282 17.0696C170.62 17.4872 170.882 17.8816 171.068 18.2528H171.217V10.6364H174.826V31H171.287V28.5937H171.068C170.882 28.965 170.614 29.3594 170.262 29.777C169.911 30.188 169.447 30.5393 168.87 30.831C168.294 31.1226 167.568 31.2685 166.693 31.2685ZM167.697 28.3153C168.459 28.3153 169.109 28.1098 169.646 27.6989C170.183 27.2812 170.591 26.7012 170.869 25.9588C171.147 25.2164 171.287 24.3513 171.287 23.3636C171.287 22.3759 171.147 21.5175 170.869 20.7884C170.597 20.0592 170.193 19.4924 169.656 19.0881C169.126 18.6837 168.473 18.4815 167.697 18.4815C166.895 18.4815 166.226 18.6903 165.689 19.108C165.152 19.5256 164.747 20.1023 164.476 20.8381C164.204 21.5739 164.068 22.4157 164.068 23.3636C164.068 24.3182 164.204 25.17 164.476 25.919C164.754 26.6615 165.162 27.2481 165.699 27.679C166.242 28.1032 166.908 28.3153 167.697 28.3153Z" fill="white"/>
<path d="M19.3394 36.6519C15.5359 36.9964 12.7768 33.1067 14.3591 29.6308L17.388 22.9774C19.1102 19.1943 24.7989 20.6769 24.4556 24.8193C24.3067 26.6163 25.4725 28.2597 27.2177 28.7131C31.2408 29.7583 30.7598 35.6173 26.62 35.9923L19.3394 36.6519Z" fill="#FF4581"/>
<path d="M42.1371 36.4997C45.9498 36.7212 48.5819 32.7445 46.8881 29.3215L43.6459 22.7693C41.8024 19.0438 36.1645 20.7093 36.6414 24.8386C36.8483 26.6298 35.7362 28.31 34.0066 28.8195C30.0193 29.9941 30.6893 35.8345 34.839 36.0756L42.1371 36.4997Z" fill="#FF4581"/>
<path d="M34.8612 7.78341C32.9417 4.48175 28.1728 4.48175 26.2532 7.78341L22.5788 14.1033C20.4896 17.6968 24.9901 21.479 28.1702 18.8023C29.5497 17.6411 31.5647 17.6411 32.9442 18.8023C36.1243 21.479 40.6248 17.6968 38.5356 14.1033L34.8612 7.78341Z" fill="#FF4581"/>
<circle cx="30.6466" cy="24.0156" r="3.73738" fill="#FF4581"/>
</svg>
